<svg xmlns="http://www.w3.org/2000/svg" xmlns:xlink="http://www.w3.org/1999/xlink" version="1.1" id="Layer_1" x="0px" y="0px" width="100px" height="100px" viewBox="0 0 100 100" enable-background="new 0 0 100 100" xml:space="preserve">
<g>
	<path d="M42.057,28.643c2.421-1.012,4.969-1.526,7.572-1.526c6.224,0,11.99,2.903,15.701,7.823   c0.052-0.111,0.116-0.231,0.159-0.337c3.496-8.517-0.531-18.274-8.993-21.792c-8.464-3.519-18.158,0.536-21.653,9.053   c-0.324,0.788-0.593,1.822-0.818,3.048c-0.228-1.233-0.501-2.272-0.827-3.062c-3.512-8.512-13.214-12.545-21.671-9.008   C3.07,16.374-0.937,26.14,2.576,34.65c3.457,8.376,31.508,32.845,31.508,32.845s1.594-1.397,4.055-3.626   c-3.24-3.649-5.769-6.963-6.733-9.299C27.236,44.47,32.015,32.839,42.057,28.643z"/>
</g>
<g>
	<path d="M88.242,31.525c-8.463-3.519-18.157,0.536-21.651,9.053c-0.324,0.788-0.595,1.821-0.818,3.047   c-0.228-1.233-0.502-2.271-0.827-3.062c-3.513-8.512-13.215-12.545-21.671-9.009c-8.457,3.534-12.464,13.3-8.951,21.81   C37.78,61.741,65.832,86.21,65.832,86.21s27.963-24.5,31.404-32.892C100.734,44.8,96.706,35.043,88.242,31.525z"/>
</g>
</svg>