<svg xmlns="http://www.w3.org/2000/svg" xmlns:xlink="http://www.w3.org/1999/xlink" version="1.1" id="Layer_1" x="0px" y="0px" width="100px" height="100px" viewBox="0 0 100 100" enable-background="new 0 0 100 100" xml:space="preserve">
<g>
	<g id="XMLID_2_">
		<g>
			<polygon points="92.522,98.718 7.673,98.718 11.881,91.281 87.254,91.281    "/>
			<path d="M83.861,86.496l2.151,3.037H75.701L49.14,78.525l0,0l-23.75,9.762l0.005,0.005l-3.019,1.241h-9.511l1.778-3.141     l7.291-0.356V69.929c5.408-4.442,19.908-6.435,27.065-6.348v0.023l0.402-0.017h0.047l0.414,0.017v-0.023     c6.614-0.082,20.344,1.737,26.284,5.77l0.133,16.837L83.861,86.496z M71.908,81.13v-9.18c0-0.31-0.15-0.588-0.407-0.792     c-0.246-0.205-0.595-0.327-0.979-0.327c-0.765,0-1.382,0.502-1.382,1.119v9.18c0,0.31,0.157,0.588,0.401,0.792     c0.251,0.198,0.596,0.325,0.98,0.325C71.291,82.247,71.908,81.747,71.908,81.13z M64.77,79.066v-9.932     c0-0.332-0.157-0.635-0.402-0.851c-0.25-0.222-0.594-0.355-0.979-0.355c-0.77,0-1.388,0.542-1.388,1.206v9.932     c0,0.339,0.151,0.641,0.408,0.856c0.245,0.222,0.596,0.356,0.979,0.356C64.15,80.279,64.77,79.737,64.77,79.066z M57.63,77.51     v-9.93c0-0.332-0.151-0.636-0.407-0.857c-0.245-0.221-0.596-0.355-0.979-0.355c-0.763,0-1.382,0.542-1.382,1.213v9.93     c0,0.332,0.158,0.636,0.402,0.851c0.25,0.222,0.595,0.356,0.979,0.356C57.013,78.717,57.63,78.174,57.63,77.51z M50.491,76.724     v-9.488c0-0.319-0.157-0.611-0.402-0.822c-0.25-0.21-0.595-0.338-0.979-0.338c-0.769,0-1.386,0.52-1.386,1.16v9.488     c0,0.313,0.151,0.604,0.408,0.815c0.245,0.211,0.595,0.339,0.979,0.339C49.873,77.878,50.491,77.358,50.491,76.724z      M43.352,77.656v-9.933c0-0.337-0.151-0.64-0.408-0.854c-0.245-0.223-0.594-0.356-0.979-0.356c-0.764,0-1.381,0.542-1.381,1.211     v9.933c0,0.333,0.157,0.636,0.402,0.851c0.251,0.222,0.595,0.356,0.979,0.356C42.734,78.863,43.352,78.32,43.352,77.656z      M36.213,79.066v-9.932c0-0.332-0.158-0.635-0.403-0.851c-0.25-0.222-0.594-0.355-0.979-0.355c-0.769,0-1.387,0.542-1.387,1.206     v9.932c0,0.339,0.151,0.641,0.408,0.856c0.245,0.222,0.594,0.356,0.979,0.356C35.595,80.279,36.213,79.737,36.213,79.066z      M29.073,81.13v-9.18c0-0.31-0.152-0.588-0.408-0.792c-0.245-0.205-0.595-0.327-0.979-0.327c-0.763,0-1.381,0.502-1.381,1.119     v9.18c0,0.31,0.157,0.588,0.402,0.792c0.251,0.198,0.594,0.325,0.979,0.325C28.455,82.247,29.073,81.747,29.073,81.13z"/>
			<path d="M78.506,65.854c0.484,1.427,0.314,2.593,0.11,3.24c-0.32-0.309-0.682-0.612-1.084-0.904     c-6.438-4.731-21.662-6.503-28.084-6.351c-0.018,0-0.029,0-0.047,0c-6.947-0.152-23.015,1.794-28.89,7.005     c0,0-0.753-1.449-0.157-2.984c1.142-0.996,2.75-1.94,4.796-2.809c7.215-3.072,18.445-4.518,24.017-4.413v0.013     c0.076-0.006,0.152-0.006,0.251-0.006c0.012,0,0.023,0,0.035,0c0.087,0,0.163,0,0.239,0.006v-0.013     c4.661-0.087,14.29,0.938,21.795,3.557C74.606,63.284,76.972,64.515,78.506,65.854z"/>
			<path d="M73.663,53.195c-4.889-5.466-18.363-7.86-24.81-7.664c-0.006,0-0.018,0-0.022,0c-5.922-0.168-19.694,1.954-24.776,7.643     c-0.005,0.011-0.018,0.016-0.023,0.028c-0.34-2.708,0.682-4.033,0.682-4.033c1.323-1.283,3.206-2.46,5.606-3.515     c6.341-2.774,14.401-3.87,18.317-3.777v0.018c0.064-0.006,0.122-0.011,0.21-0.011c0.012,0,0.023,0,0.029,0     c0.064,0,0.122,0.005,0.181,0.011v-0.018c3.841-0.093,11.865,0.979,18.212,3.73c2.797,1.213,4.902,2.594,6.241,4.102     C74.032,51.15,73.78,52.647,73.663,53.195z"/>
			<path d="M72.496,54.52v6.177c-0.146-0.054-0.29-0.105-0.437-0.157c-1.666-0.582-3.438-1.084-5.233-1.521     c0.012-0.03,0.018-0.059,0.018-0.094v-4.896c0-0.332-0.488-0.594-1.089-0.594c-0.606,0-1.096,0.262-1.096,0.594v4.506     c-1.172-0.243-2.344-0.46-3.492-0.641c0.024-0.047,0.036-0.094,0.036-0.146v-5.327c0-0.355-0.489-0.647-1.09-0.647     c-0.606,0-1.095,0.292-1.095,0.647v5.152c-1.202-0.169-2.367-0.304-3.469-0.409c0.012-0.034,0.019-0.068,0.019-0.104v-5.67     c0-0.385-0.49-0.694-1.097-0.694c-0.6,0-1.09,0.31-1.09,0.694v5.606c-1.315-0.082-2.488-0.116-3.468-0.104     c0.012-0.031,0.012-0.061,0.012-0.089v-5.893c0-0.396-0.489-0.716-1.09-0.716c-0.605,0-1.096,0.32-1.096,0.716v5.893     c0,0.028,0.005,0.064,0.018,0.094c-1.038,0.017-2.203,0.081-3.468,0.181v-5.606c0-0.385-0.489-0.694-1.096-0.694     c-0.606,0-1.095,0.31-1.095,0.694v5.676c0,0.045,0.005,0.088,0.023,0.134c-1.113,0.123-2.278,0.274-3.473,0.454v-5.314     c0-0.355-0.49-0.647-1.096-0.647c-0.6,0-1.09,0.292-1.09,0.647v5.327c0,0.116,0.053,0.227,0.152,0.319     c-1.201,0.21-2.407,0.456-3.607,0.723v-4.762c0-0.332-0.489-0.594-1.09-0.594c-0.606,0-1.096,0.262-1.096,0.594v4.896     c0,0.129,0.076,0.251,0.21,0.345c-1.899,0.488-3.747,1.066-5.455,1.724V54.11c4.599-4.785,16.907-6.935,22.916-6.835v0.018     c0.094-0.006,0.187-0.012,0.303-0.012h0.064l0.35,0.018v-0.023C55.404,47.181,68.265,49.501,72.496,54.52z"/>
			<polygon points="71.11,89.533 26.981,89.533 49.075,80.441    "/>
			<path d="M52.973,24.779c6.196,2.238,11.08,8.987,13.516,18.62c-5.868-2.232-13.312-3.404-17.56-3.263c-0.017,0-0.034,0-0.052,0     c-0.012,0-0.018,0-0.029,0c-3.678-0.123-11.312,0.828-17.734,3.31c2.156-9.896,7.268-16.907,13.853-18.895     C47.594,23.753,50.363,23.835,52.973,24.779z"/>
			<path d="M52.536,14.679v8.125c-2.301-0.653-4.685-0.724-6.999-0.21v-7.699c0.483-0.437,0.997-0.775,1.527-0.997     c1.171-0.507,2.454-0.525,3.817-0.052C51.581,14.09,52.152,14.422,52.536,14.679z"/>
			<path d="M48.871,1.333c0.379,0.921,1.09,3.625,1.306,11.12c-0.88-0.163-1.743-0.152-2.56,0.046     C47.571,6.345,48.306,2.604,48.871,1.333z"/>
		</g>
	</g>
</g>
</svg>