<svg xmlns:dc="http://purl.org/dc/elements/1.1/" xmlns:cc="http://creativecommons.org/ns#" xmlns:rdf="http://www.w3.org/1999/02/22-rdf-syntax-ns#" xmlns:svg="http://www.w3.org/2000/svg" xmlns="http://www.w3.org/2000/svg" xmlns:sodipodi="http://sodipodi.sourceforge.net/DTD/sodipodi-0.dtd" xmlns:inkscape="http://www.inkscape.org/namespaces/inkscape" width="100" height="100" viewBox="0 0 80 80" version="1.1" id="svg2" inkscape:version="0.48.2 r9819" sodipodi:docname="atom bw.svg">
  <metadata id="metadata10">
    <rdf:RDF>
      <cc:Work rdf:about="">
        <dc:format>image/svg+xml</dc:format>
        <dc:type rdf:resource="http://purl.org/dc/dcmitype/StillImage"/>
        <dc:title/>
      </cc:Work>
    </rdf:RDF>
  </metadata>
  <defs id="defs8"/>
  <sodipodi:namedview pagecolor="#ffffff" bordercolor="#666666" borderopacity="1" objecttolerance="10" gridtolerance="10" guidetolerance="10" inkscape:pageopacity="0" inkscape:pageshadow="2" inkscape:window-width="1600" inkscape:window-height="853" id="namedview6" showgrid="true" inkscape:zoom="3.315" inkscape:cx="65.171884" inkscape:cy="72.478712" inkscape:window-x="-4" inkscape:window-y="-4" inkscape:window-maximized="1" inkscape:current-layer="svg2" inkscape:snap-grids="false">
    <inkscape:grid type="xygrid" id="grid3807"/>
  </sodipodi:namedview>
  <path style="font-size:medium;font-style:normal;font-variant:normal;font-weight:normal;font-stretch:normal;text-indent:0;text-align:start;text-decoration:none;line-height:normal;letter-spacing:normal;word-spacing:normal;text-transform:none;direction:ltr;block-progression:tb;writing-mode:lr-tb;text-anchor:start;baseline-shift:baseline;color:#000000;fill:#000000;fill-opacity:1;stroke:none;stroke-width:2;marker:none;visibility:visible;display:inline;overflow:visible;enable-background:accumulate;font-family:Sans;-inkscape-font-specification:Sans" d="m 41.375,5.475 c -1.916236,0 -3.634615,1.1814014 -5.1,3.05 -1.465385,1.868598 -2.738642,4.475201 -3.8,7.675 -2.122717,6.399598 -3.4,15.13895 -3.4,24.8 0,9.66105 1.277283,18.425402 3.4,24.825 1.061358,3.199799 2.334615,5.806402 3.8,7.675 1.465385,1.868598 3.183764,3.025 5.1,3.025 1.916236,0 3.659615,-1.156402 5.125,-3.025 1.465385,-1.868598 2.713642,-4.475201 3.775,-7.675 C 52.397717,59.425402 53.7,50.66105 53.7,41 53.7,31.33895 52.397717,22.599598 50.275,16.2 49.213642,13.000201 47.965385,10.393598 46.5,8.525 45.034615,6.6564014 43.291236,5.475 41.375,5.475 z m 0,1.6 c 1.264505,0 2.559281,0.7791271 3.85,2.425 1.290719,1.645873 2.526923,4.115613 3.55,7.2 2.046154,6.168774 3.325,14.78236 3.325,24.3 0,9.51764 -1.278846,18.131226 -3.325,24.3 -1.023077,3.084387 -2.259281,5.554127 -3.55,7.2 -1.290719,1.645873 -2.585495,2.425 -3.85,2.425 -1.264505,0 -2.559281,-0.779127 -3.85,-2.425 C 36.234281,70.854127 35.023077,68.384387 34,65.3 31.953846,59.131226 30.675,50.51764 30.675,41 c 0,-9.51764 1.278846,-18.131226 3.325,-24.3 1.023077,-3.084387 2.234281,-5.554127 3.525,-7.2 1.290719,-1.6458729 2.585495,-2.425 3.85,-2.425 z" id="path12539" inkscape:connector-curvature="0"/>
  <path style="font-size:medium;font-style:normal;font-variant:normal;font-weight:normal;font-stretch:normal;text-indent:0;text-align:start;text-decoration:none;line-height:normal;letter-spacing:normal;word-spacing:normal;text-transform:none;direction:ltr;block-progression:tb;writing-mode:lr-tb;text-anchor:start;baseline-shift:baseline;color:#000000;fill:#000000;fill-opacity:1;stroke:none;stroke-width:2;marker:none;visibility:visible;display:inline;overflow:visible;enable-background:accumulate;font-family:Sans;-inkscape-font-specification:Sans" d="m 67.237747,16.635283 c -1.314134,-1.394637 -3.352403,-1.835083 -5.717315,-1.620126 -2.364912,0.214956 -5.135184,1.075858 -8.191867,2.497787 -6.113367,2.843859 -13.349818,7.907602 -20.381135,14.533043 -7.031318,6.62544 -12.534071,13.565542 -15.735967,19.49923 -1.600947,2.966844 -2.624849,5.6811 -2.979871,8.029072 -0.355022,2.347972 -0.01821,4.391656 1.295927,5.786294 1.314133,1.394637 3.351353,1.870422 5.716264,1.655466 2.364912,-0.214956 5.118039,-1.094053 8.174722,-2.515982 6.113367,-2.843859 13.385158,-7.906552 20.416476,-14.531992 7.031317,-6.625441 12.49873,-13.566593 15.700626,-19.500281 1.600948,-2.966844 2.641994,-5.662905 2.997016,-8.010877 0.355023,-2.347972 0.01926,-4.426996 -1.294876,-5.821634 z m -1.164481,1.097263 c 0.867183,0.920307 1.188077,2.396962 0.875371,4.46507 -0.312706,2.068107 -1.26241,4.661537 -2.805614,7.521371 -3.086408,5.719669 -8.478361,12.557515 -15.405305,19.084607 -6.926943,6.527092 -14.072934,11.503448 -19.965801,14.244733 -2.946433,1.370642 -5.591686,2.164653 -7.674714,2.353988 -2.083028,0.189335 -3.53802,-0.218687 -4.405204,-1.138994 -0.867183,-0.920308 -1.188077,-2.396963 -0.87537,-4.46507 0.312706,-2.068108 1.279554,-4.643343 2.822758,-7.503177 3.086408,-5.719669 8.478361,-12.557515 15.405305,-19.084607 6.926943,-6.527091 14.072934,-11.503447 19.965801,-14.244733 2.946433,-1.370642 5.574541,-2.182847 7.657569,-2.372183 2.083028,-0.189335 3.538021,0.218687 4.405204,1.138995 z" id="path12541" inkscape:connector-curvature="0"/>
  <path style="font-size:medium;font-style:normal;font-variant:normal;font-weight:normal;font-stretch:normal;text-indent:0;text-align:start;text-decoration:none;line-height:normal;letter-spacing:normal;word-spacing:normal;text-transform:none;direction:ltr;block-progression:tb;writing-mode:lr-tb;text-anchor:start;baseline-shift:baseline;color:#000000;fill:#000000;fill-opacity:1;stroke:none;stroke-width:2;marker:none;visibility:visible;display:inline;overflow:visible;enable-background:accumulate;font-family:Sans;-inkscape-font-specification:Sans" d="M 72.419387,58.30555 C 73.352523,56.631867 73.157448,54.555697 72.238961,52.365858 71.320473,50.176019 69.663837,47.794609 67.385903,45.30941 62.830035,40.339013 55.818878,34.967662 47.3807,30.263086 38.942522,25.558511 30.66555,22.406202 24.042311,21.143862 c -3.311619,-0.63117 -6.208313,-0.788399 -8.553977,-0.418437 -2.345665,0.369961 -4.192479,1.307707 -5.125616,2.981391 -0.9331361,1.673684 -0.7720704,3.759515 0.146417,5.949354 0.918487,2.189839 2.587298,4.549414 4.865232,7.034612 4.555868,4.970398 11.576686,10.375758 20.014864,15.080334 8.438178,4.704575 16.705489,7.822874 23.328727,9.085215 3.311619,0.63117 6.19614,0.810233 8.541804,0.440272 2.345665,-0.369961 4.226489,-1.317369 5.159625,-2.991053 z m -1.397476,-0.779141 c -0.615767,1.104447 -1.926783,1.855928 -3.992858,2.181791 -2.066075,0.325864 -4.825187,0.20292 -8.017361,-0.405485 C 52.627344,58.085906 44.481293,55.00838 36.168372,50.37364 27.855452,45.738899 20.954903,40.427427 16.563358,35.636304 c -2.195772,-2.395561 -3.750913,-4.677962 -4.559922,-6.606785 -0.80901,-1.928822 -0.859009,-3.439115 -0.243242,-4.543562 0.615768,-1.104447 1.926783,-1.855927 3.992858,-2.181791 2.066075,-0.325864 4.813013,-0.181084 8.005187,0.427321 6.384348,1.216809 14.530399,4.294335 22.84332,8.929075 8.312921,4.634741 15.213469,9.946213 19.605014,14.737336 2.195772,2.395561 3.763087,4.656126 4.572097,6.584949 0.809009,1.928823 0.859008,3.439115 0.243241,4.543562 z" id="path12543" inkscape:connector-curvature="0"/>
  <path transform="matrix(0.74100456,0,0,0.77900484,47.854481,13.78805)" style="fill:#000000;stroke:none;stroke-width:2;stroke-linecap:round;stroke-linejoin:round;stroke-miterlimit:4;stroke-dashoffset:0.80000000000000004;stroke-opacity:1" d="m -41.38121,24.809914 c 0,2.297201 -1.95775,4.159451 -4.372757,4.159451 -2.415007,0 -4.372757,-1.86225 -4.372757,-4.159451 0,-2.297202 1.95775,-4.159452 4.372757,-4.159452 2.415007,0 4.372757,1.86225 4.372757,4.159452 z" id="path12545"/>
  <path transform="matrix(0.74100456,0,0,0.77900484,96.658713,14.129338)" style="fill:#000000;stroke:none;stroke-width:2;stroke-linecap:round;stroke-linejoin:round;stroke-miterlimit:4;stroke-dashoffset:0.80000000000000004;stroke-opacity:1" d="m -41.38121,24.809914 c 0,2.297201 -1.95775,4.159451 -4.372757,4.159451 -2.415007,0 -4.372757,-1.86225 -4.372757,-4.159451 0,-2.297202 1.95775,-4.159452 4.372757,-4.159452 2.415007,0 4.372757,1.86225 4.372757,4.159452 z" id="path12547"/>
  <path transform="matrix(0.74100456,0,0,0.77900484,84.031044,45.186577)" style="fill:#000000;stroke:none;stroke-width:2;stroke-linecap:round;stroke-linejoin:round;stroke-miterlimit:4;stroke-dashoffset:0.80000000000000004;stroke-opacity:1" d="m -41.38121,24.809914 c 0,2.297201 -1.95775,4.159451 -4.372757,4.159451 -2.415007,0 -4.372757,-1.86225 -4.372757,-4.159451 0,-2.297202 1.95775,-4.159452 4.372757,-4.159452 2.415007,0 4.372757,1.86225 4.372757,4.159452 z" id="path12549"/>
  <path style="fill:#000000;fill-opacity:1;stroke:none;stroke-width:1.59050095000000000;stroke-linecap:round;stroke-linejoin:round;stroke-miterlimit:4;stroke-opacity:1;stroke-dasharray:none;stroke-dashoffset:0.80000000000000004" d="M 48.53125 44.125 C 45.861238 44.125 43.71875 46.361303 43.71875 49.125 C 43.71875 50.293361 44.101671 51.367167 44.75 52.21875 C 45.955267 50.877096 47.681222 50.03125 49.59375 50.03125 C 49.634996 50.03125 49.677428 50.030667 49.71875 50.03125 C 50.369384 48.641339 51.482635 47.51475 52.84375 46.875 C 52.044533 45.251566 50.410261 44.125 48.53125 44.125 z " transform="scale(0.8,0.8)" id="path13107"/>
  <path style="fill:#000000;fill-opacity:1;stroke:none" d="m 39.269004,40.880995 c -2.139663,0 -3.875,1.810261 -3.875,4.025 0,2.214738 1.735337,4 3.875,4 1.249944,0 2.366595,-0.623919 3.075,-1.575 -1.722827,-0.901647 -2.9,-2.760432 -2.9,-4.875 0,-0.54361 0.07949,-1.054305 0.225,-1.55 -0.130239,-0.01369 -0.266271,-0.025 -0.4,-0.025 z" id="path13111" inkscape:connector-curvature="0"/>
  <path transform="matrix(0.73820187,0,0,0.73820187,96.230643,16.07899)" d="m -63.778262,35.475174 a 6.0791984,6.2925038 0 1 1 -12.158396,0 6.0791984,6.2925038 0 1 1 12.158396,0 z" sodipodi:ry="6.2925038" sodipodi:rx="6.0791984" sodipodi:cy="35.475174" sodipodi:cx="-69.85746" style="fill:#000000;fill-opacity:1;stroke:none" sodipodi:type="arc"/>
</svg>